# AST/ASF file generated using VICON BodyLanguage
# -----------------------------------------------
:version 1.10
:name VICON
:units
  mass 1.0
  length 0.45
  angle deg
:documentation
   .ast/.asf automatically generated from VICON data using
   VICON BodyBuilder and BodyLanguage model FoxedUp or BRILLIANT.MOD
:root
   order TX TY TZ RX RY RZ
   axis XYZ
   position 0 0 0  
   orientation 0 0 0 
:bonedata
  begin
     id 1 
     name lhipjoint
     direction 0.603808 -0.713975 0.35448 
     length 2.2025 
     axis 0 0 0  XYZ
  end
  begin
     id 2 
     name lfemur
     direction 0.34202 -0.939693 0  
     length 6.55877  
     axis 0 0 20  XYZ
    dof rx ry rz
    limits (-160.0 20.0)
           (-70.0 70.0)
           (-60.0 70.0)
  end
  begin
     id 3 
     name ltibia
     direction 0.34202 -0.939693 0   
     length 6.80302   
     axis 0 0 20   XYZ
    dof rx
    limits (-10.0 170.0)
  end
  begin
     id 4 
     name lfoot
     direction 0.091848 -0.25235 0.963267   
     length 2.03446   
     axis -90 7.62852e-016 20   XYZ
    dof rx rz
    limits (-45.0 90.0)
           (-70.0 20.0)
  end
  begin
     id 5 
     name ltoes
     direction 1.53608e-011 -4.21925e-011 1   
     length 1.02033   
     axis -90 7.62852e-016 20   XYZ
    dof rx
    limits (-90.0 20.0)
  end
  begin
     id 6 
     name rhipjoint
     direction -0.587285 -0.724947 0.359928   
     length 2.16916  
     axis 0 0 0  XYZ 
  end
  begin
     id 7 
     name rfemur
     direction -0.34202 -0.939693 0   
     length 6.43173   
     axis 0 0 -20   XYZ
    dof rx ry rz
    limits (-160.0 20.0)
           (-70.0 70.0)
           (-70.0 60.0)
  end
  begin
     id 8 
     name rtibia
     direction -0.34202 -0.939693 0   
     length 6.70662   
     axis 0 0 -20   XYZ
    dof rx
    limits (-10.0 170.0)
 end
 begin
     id 9 
     name rfoot
     direction -0.11854 -0.325686 0.938018   
     length 2.0773  
     axis -90 -7.62852e-016 -20   XYZ
    dof rx rz
    limits (-45.0 90.0)
           (-20.0 70.0)
  end
  begin
     id 10 
     name rtoes
     direction -1.53547e-011 -4.21838e-011 1   
     length 1.03267   
     axis -90 -7.62852e-016 -20   XYZ
    dof rx
    limits (-90.0 20.0)
  end
  begin
     id 11 
     name lowerback
     direction -0.0286554 0.999539 0.0100613   
     length 2.08751   
     axis 0 0 0   XYZ
    dof rx ry rz
    limits (-20.0 45.0)
           (-30.0 30.0)
           (-30.0 30.0)
  end
  begin
     id 12 
     name upperback
     direction 0.0227093 0.999705 -0.00860929   
     length 2.08517   
     axis 0 0 0   XYZ
    dof rx ry rz
    limits (-20.0 45.0)
           (-30.0 30.0)
           (-30.0 30.0)
  end
  begin
     id 13 
     name thorax
     direction 0.0351627 0.999285 -0.013892   
     length 2.08412   
     axis 0 0 0   XYZ
    dof rx ry rz
    limits (-20.0 45.0)
           (-30.0 30.0)
           (-30.0 30.0)
  end
  begin
     id 14 
     name lowerneck
     direction -0.0696283 0.997344 0.0213922   
     length 1.44164   
     axis 0 0 0   XYZ
    dof rx ry rz
    limits (-20.0 45.0)
           (-30.0 30.0)
           (-30.0 30.0)
  end
  begin
     id 15 
     name upperneck
     direction 0.0531 0.990412 -0.127531   
     length 1.45022   
     axis 0 0 0   XYZ
    dof rx ry rz
    limits (-20.0 45.0)
           (-30.0 30.0)
           (-30.0 30.0)
  end
  begin
     id 16
     name head
     direction 0.0188154 0.998548 -0.0504727  
     length 1.45845  
     axis 0 0 0   XYZ
    dof rx ry rz
    limits (-20.0 45.0)
           (-30.0 30.0)
           (-30.0 30.0)
  end
  begin
     id 17 
     name lclavicle
     direction 0.961559 0.260051 0.088188  
     length 2.86057  
     axis 0 0 0   XYZ
    dof ry rz
    limits (-20.0 10.0)
           (0.0 20.0)
  end
  begin
     id 18 
     name lhumerus
     direction 1 -4.48959e-011 2.88185e-027   
     length 4.36901   
     axis 180 -30 -90   XYZ
    dof rx ry rz
    limits (-60.0 90.0)
           (-90.0 90.0)
           (-90.0 90.0)
  end
  begin
     id 19
     name lradius
     direction 1 -4.48965e-011 -3.92618e-028   
     length 3.21737   
     axis 180 -30 -90   XYZ
    dof rx
    limits (-10.0 170.0)
  end
  begin
     id 20
     name lwrist
     direction 1 -4.49037e-011 2.57246e-027   
     length 1.60869   
     axis -1.61769e-015 90 90   XYZ
    dof ry
    limits (-180.0 0.0)
 end
  begin
     id 21 
     name lhand
     direction 1 -4.48807e-011 5.12958e-027   
     length 0.564313   
     axis -3.27988e-015 90 90   XYZ
    dof rx rz
    limits (-90.0 90.0)
           (-45.0 45.0)
  end
  begin
     id 22 
     name lfingers
     direction 1 -4.48879e-011 1.02687e-026   
     length 0.454963   
     axis -6.5598e-015 90 90   XYZ
    dof rx
    limits (0.0 90.0)
  end
  begin
     id 23
     name lthumb
     direction 0.707107 -6.3475e-011 0.707107   
     length 0.653239   
     axis -90 45 2.19363e-014   XYZ
    dof rx rz
    limits (-45.0 45.0)
           (-45.0 45.0)
  end
  begin
     id 24 
     name rclavicle
     direction -0.954677 0.253915 0.155304   
     length 3.11497  
     axis 0 0 0   XYZ 
    dof ry rz
    limits (-10.0 20.0)
           (-20.0 0.0)
  end
  begin
     id 25 
     name rhumerus
     direction -1 -4.48958e-011 -8.20169e-028  
     length 4.34118   
     axis 180 30 90   XYZ
    dof rx ry rz
    limits (-90.0 60.0)
           (-90.0 90.0)
           (-90.0 90.0)
  end
  begin
     id 26 
     name rradius
     direction -1 -4.48978e-011 1.5676e-027   
     length 3.09531   
     axis 180 30 90   XYZ
    dof rx
    limits (-10.0 170.0)
  end
  begin
     id 27 
     name rwrist
     direction -1 -4.49001e-011 2.57123e-027   
     length 1.54765   
     axis -1.61769e-015 -90 -90   XYZ
    dof ry
    limits (-180.0 0.0)
  end
  begin
     id 28
     name rhand
     direction -1 -4.48847e-011 5.13225e-027   
     length 0.597446   
     axis -3.27988e-015 -90 -90   XYZ
    dof rx rz
    limits (-90.0 90.0)
           (-45.0 45.0)
  end
  begin
     id 29
     name rfingers
     direction -1 -4.49094e-011 1.02974e-026   
     length 0.481677   
     axis -6.5598e-015 -90 -90   XYZ
    dof rx
    limits (0.0 90.0)
  end
  begin
     id 30
     name rthumb
     direction -0.707107 -6.34859e-011 0.707107   
     length 0.691594   
     axis -90 -45 -2.19363e-014   XYZ
    dof rx rz
    limits (-45.0 45.0)
           (-45.0 45.0)
  end
:hierarchy
  begin
    root lhipjoint rhipjoint lowerback
    lhipjoint lfemur
    lfemur ltibia
    ltibia lfoot
    lfoot ltoes
    rhipjoint rfemur
    rfemur rtibia
    rtibia rfoot
    rfoot rtoes
    lowerback upperback
    upperback thorax
    thorax lowerneck lclavicle rclavicle
    lowerneck upperneck
    upperneck head
    lclavicle lhumerus
    lhumerus lradius
    lradius lwrist
    lwrist lhand lthumb
    lhand lfingers
    rclavicle rhumerus
    rhumerus rradius
    rradius rwrist
    rwrist rhand rthumb
    rhand rfingers
  end

#!OML:ASF G:\acrobat\cartwheel_test 2\Patient 1\Session 1\acrobat.ASF
:FULLY-SPECIFIED
:DEGREES
1
root 7.68074 14.6749 -0.871686 -9.28276 0.0190561 1.97282
lowerback -0.561403 -0.5903 -3.54285
upperback 0.388263 -0.765669 1.36406
thorax 0.778762 -0.405647 3.37983
lowerneck -9.67435 -5.31351 -7.24122
upperneck 16.8694 -6.77627 3.78574
head 7.13765 -3.40538 1.7881
rclavicle -7.65321e-015 -5.56597e-015
rhumerus 44.6312 1.42116 -67.6216
rradius 20.1941
rwrist 28.7493
rhand -19.0623 36.3741
rfingers 7.12502
rthumb 7.245 6.51809
lclavicle -7.65321e-015 -5.56597e-015
lhumerus 41.6873 -19.9148 45.2646
lradius 29.3451
lwrist 17.7384
lhand -13.8911 41.1632
lfingers 7.12502
lthumb 12.2341 70.7853
rfemur -11.837 -5.12016 11.446
rtibia 51.6427
rfoot -29.9758 -17.2604
rtoes -12.1706
lfemur -14.7841 5.72584 -10.9952
ltibia 52.9966
lfoot -22.7153 11.5083
ltoes -14.5561
2
root 7.67684 14.668 -0.864639 -9.29818 -0.0545515 1.81882
lowerback -0.618176 -0.558776 -3.38752
upperback 0.410494 -0.723368 1.41052
thorax 0.828419 -0.385131 3.34011
lowerneck -9.70747 -5.32959 -7.22951
upperneck 16.8788 -6.79848 3.78713
head 7.14744 -3.41471 1.78352
rclavicle 8.15017e-015 3.57812e-015
rhumerus 44.7524 1.28511 -67.763
rradius 20.2371
rwrist 28.4291
rhand -18.0366 35.9536
rfingers 7.12502
rthumb 8.23505 6.13409
lclavicle 8.15017e-015 3.57812e-015
lhumerus 41.7209 -19.9266 45.2435
lradius 29.321
lwrist 17.6062
lhand -13.809 41.2564
lfingers 7.12502
lthumb 12.3133 70.8738
rfemur -11.8352 -4.9758 11.6709
rtibia 51.6551
rfoot -30.0516 -17.2327
rtoes -12.0083
lfemur -14.7979 5.74657 -10.7703
ltibia 53.1295
lfoot -22.8053 11.4802
ltoes -14.5938
3
root 7.67465 14.6627 -0.856951 -9.35039 -0.0697561 1.78848
lowerback -0.64139 -0.537132 -3.35559
upperback 0.433379 -0.69401 1.42174
thorax 0.86224 -0.371324 3.33379
lowerneck -9.73374 -5.33448 -7.27894
upperneck 16.9111 -6.81107 3.86888
head 7.16788 -3.41664 1.81584
rclavicle 6.55989e-015 4.77083e-015
rhumerus 44.7324 1.34814 -67.6338
rradius 20.4005
rwrist 28.1249
rhand -17.4999 35.7507
rfingers 7.12502
rthumb 8.75296 5.95215
lclavicle 6.55989e-015 4.77083e-015
lhumerus 41.7322 -19.9105 45.2986
lradius 29.2582
lwrist 17.3844
lhand -13.7349 41.3887
lfingers 7.12502
lthumb 12.3847 71.0018
rfemur -11.7706 -4.95233 11.7205
rtibia 51.7042
rfoot -30.087 -17.2839
rtoes -12.2793
lfemur -14.7709 5.73602 -10.7325
ltibia 53.2189
lfoot -22.8114 11.5967
ltoes -15.0127
4
root 7.67358 14.6584 -0.849314 -9.41665 -0.0245803 1.84417
lowerback -0.608832 -0.491732 -3.36207
upperback 0.411374 -0.63388 1.33935
thorax 0.81548 -0.33972 3.25372
lowerneck -9.61848 -5.36183 -7.17269
upperneck 16.8626 -6.8778 3.89022
head 7.13234 -3.44177 1.80216
rclavicle -1.98785e-015 -1.59028e-015
rhumerus 44.5586 1.34576 -67.5017
rradius 20.4915
rwrist 27.9095
rhand -17.5628 35.8571
rfingers 7.12502
rthumb 8.69226 6.05611
lclavicle -1.98785e-015 -1.59028e-015
lhumerus 41.7983 -20.0958 45.1983
lradius 29.2443
lwrist 17.2994
lhand -13.7258 41.5137
lfingers 7.12502
lthumb 12.3935 71.1264
rfemur -11.6771 -5.10416 11.6303
rtibia 51.8141
rfoot -29.9127 -17.314
rtoes -12.795
lfemur -14.7005 5.6406 -10.8197
ltibia 53.2719
lfoot -22.8547 11.6351
ltoes -14.8738
5
root 7.67168 14.6525 -0.841769 -9.45298 0.0198961 1.89009
lowerback -0.6341 -0.40733 -3.33435
upperback 0.405 -0.51979 1.21028
thorax 0.812264 -0.281884 3.10645
lowerneck -9.49833 -5.42975 -6.91866
upperneck 16.7829 -7.01128 3.84272
head 7.08148 -3.49556 1.73621
rclavicle 1.02374e-014 -3.18055e-015
rhumerus 44.4116 1.12054 -67.4917
rradius 20.4805
rwrist 27.7626
rhand -17.5948 35.938
rfingers 7.12502
rthumb 8.66134 6.13566
lclavicle 1.02374e-014 -3.18055e-015
lhumerus 41.9959 -20.3721 45.0087
lradius 29.2664
lwrist 17.2117
lhand -13.7136 41.6366
lfingers 7.12502
lthumb 12.4053 71.2485
rfemur -11.6321 -5.21493 11.5412
rtibia 51.9067
rfoot -29.164 -16.6874
rtoes -11.9705
lfemur -14.6687 5.50994 -10.8961
ltibia 53.3614
lfoot -22.9831 11.5529
ltoes -14.3578
6
root 7.66875 14.6458 -0.835092 -9.46859 0.0520737 1.90668
lowerback -0.698719 -0.377237 -3.34798
upperback 0.425745 -0.476851 1.15993
thorax 0.866104 -0.261651 3.06238
lowerneck -9.48701 -5.46939 -6.76563
upperneck 16.7737 -7.08049 3.78033
head 7.07222 -3.52466 1.68495
rclavicle -7.7526e-015 -6.75868e-015
rhumerus 44.3766 1.0915 -67.4058
rradius 20.4949
rwrist 27.6141
rhand -17.6157 35.9128
rfingers 7.12502
rthumb 8.64119 6.1097
lclavicle -7.7526e-015 -6.75868e-015
lhumerus 42.1024 -20.4656 44.8968
lradius 29.2372
lwrist 17.0868
lhand -13.7554 41.6815
lfingers 7.12502
lthumb 12.3649 71.2958
rfemur -11.6077 -5.26909 11.5075
rtibia 51.9455
rfoot -29.2109 -16.6731
rtoes -11.8402
lfemur -14.6813 5.44641 -10.9329
ltibia 53.4717
lfoot -23.0261 11.6262
ltoes -14.4921
